HIERARCHY
ROOT Junyuan_V1:Solving:Hips
{
	OFFSET 0.000000 0.000000 0.000000
	CHANNELS 6 Xposition Yposition Zposition Xrotation Yrotation Zrotation
	JOINT Junyuan_V1:Solving:Spine
	{
		OFFSET 0.000000 -11.180205 2.228564
		CHANNELS 6 Xposition Yposition Zposition Xrotation Yrotation Zrotation
		JOINT Junyuan_V1:Solving:Spine1
		{
			OFFSET 0.000000 -8.682996 1.531049
			CHANNELS 6 Xposition Yposition Zposition Xrotation Yrotation Zrotation
			JOINT Junyuan_V1:Solving:Spine2
			{
				OFFSET 0.000000 -8.783394 0.768450
				CHANNELS 6 Xposition Yposition Zposition Xrotation Yrotation Zrotation
				JOINT Junyuan_V1:Solving:Spine3
				{
					OFFSET 0.000000 -8.816944 0.000000
					CHANNELS 6 Xposition Yposition Zposition Xrotation Yrotation Zrotation
					JOINT Junyuan_V1:Solving:Neck
					{
						OFFSET 0.000000 -11.336071 -1.133605
						CHANNELS 6 Xposition Yposition Zposition Xrotation Yrotation Zrotation
						JOINT Junyuan_V1:Solving:Neck1
						{
							OFFSET 0.000000 -7.643246 -0.668695
							CHANNELS 6 Xposition Yposition Zposition Xrotation Yrotation Zrotation
							JOINT Junyuan_V1:Solving:Head
							{
								OFFSET 0.000000 -7.555870 -1.332303
								CHANNELS 6 Xposition Yposition Zposition Xrotation Yrotation Zrotation
								JOINT Junyuan_V1:Solving:HeadEnd
								{
									OFFSET 0.000000 -9.728081 0.000002
									CHANNELS 6 Xposition Yposition Zposition Xrotation Yrotation Zrotation
									End Site
									{
										OFFSET 0.000000 -9.728081 0.000002
									}
								}
							}
						}
					}
					JOINT Junyuan_V1:Solving:RightShoulder
					{
						OFFSET 0.000000 -8.097195 -5.270916
						CHANNELS 6 Xposition Yposition Zposition Xrotation Yrotation Zrotation
						JOINT Junyuan_V1:Solving:RightArm
						{
							OFFSET -20.762394 -0.000008 0.000000
							CHANNELS 6 Xposition Yposition Zposition Xrotation Yrotation Zrotation
							JOINT Junyuan_V1:Solving:RightForeArm
							{
								OFFSET -29.048946 -0.000008 0.000000
								CHANNELS 6 Xposition Yposition Zposition Xrotation Yrotation Zrotation
								JOINT Junyuan_V1:Solving:RightHand
								{
									OFFSET -22.031235 -0.000008 0.000000
									CHANNELS 6 Xposition Yposition Zposition Xrotation Yrotation Zrotation
									JOINT Junyuan_V1:Solving:RightHandThumb1
									{
										OFFSET -3.579254 2.890213 -2.661497
										CHANNELS 6 Xposition Yposition Zposition Xrotation Yrotation Zrotation
										End Site
										{
											OFFSET -5.229485 0.000000 -5.277840
										}
									}
									JOINT Junyuan_V1:Solving:RightHandMiddle1
									{
										OFFSET -9.544678 -0.000004 0.061184
										CHANNELS 6 Xposition Yposition Zposition Xrotation Yrotation Zrotation
										End Site
										{
											OFFSET -7.429878 -0.000004 0.000000
										}
									}
								}
							}
						}
					}
					JOINT Junyuan_V1:Solving:LeftShoulder
					{
						OFFSET 0.000000 -8.097195 -5.270916
						CHANNELS 6 Xposition Yposition Zposition Xrotation Yrotation Zrotation
						JOINT Junyuan_V1:Solving:LeftArm
						{
							OFFSET 20.762394 -0.000008 0.000000
							CHANNELS 6 Xposition Yposition Zposition Xrotation Yrotation Zrotation
							JOINT Junyuan_V1:Solving:LeftForeArm
							{
								OFFSET 29.048946 -0.000008 0.000000
								CHANNELS 6 Xposition Yposition Zposition Xrotation Yrotation Zrotation
								JOINT Junyuan_V1:Solving:LeftHand
								{
									OFFSET 22.031235 -0.000008 0.000000
									CHANNELS 6 Xposition Yposition Zposition Xrotation Yrotation Zrotation
									JOINT Junyuan_V1:Solving:LeftHandThumb1
									{
										OFFSET 3.579254 2.890213 -2.661497
										CHANNELS 6 Xposition Yposition Zposition Xrotation Yrotation Zrotation
										End Site
										{
											OFFSET 5.229485 0.000000 -5.277840
										}
									}
									JOINT Junyuan_V1:Solving:LeftHandMiddle1
									{
										OFFSET 9.544678 -0.000004 0.061184
										CHANNELS 6 Xposition Yposition Zposition Xrotation Yrotation Zrotation
										End Site
										{
											OFFSET 7.429878 -0.000004 0.000000
										}
									}
								}
							}
						}
					}
				}
			}
		}
	}
	JOINT Junyuan_V1:Solving:RightUpLeg
	{
		OFFSET -10.825166 0.000000 0.000000
		CHANNELS 6 Xposition Yposition Zposition Xrotation Yrotation Zrotation
		JOINT Junyuan_V1:Solving:RightLeg
		{
			OFFSET 0.000000 43.678444 -0.000006
			CHANNELS 6 Xposition Yposition Zposition Xrotation Yrotation Zrotation
			JOINT Junyuan_V1:Solving:RightFoot
			{
				OFFSET 0.000000 36.488441 -0.000006
				CHANNELS 6 Xposition Yposition Zposition Xrotation Yrotation Zrotation
				JOINT Junyuan_V1:Solving:RightForeFoot
				{
					OFFSET 0.000000 3.967834 -0.000000
					CHANNELS 6 Xposition Yposition Zposition Xrotation Yrotation Zrotation
					JOINT Junyuan_V1:Solving:RightToeBase
					{
						OFFSET 0.000000 0.000000 -15.539299
						CHANNELS 6 Xposition Yposition Zposition Xrotation Yrotation Zrotation
						JOINT Junyuan_V1:Solving:RightToeBaseEnd
						{
							OFFSET 0.000000 0.000000 -3.486985
							CHANNELS 6 Xposition Yposition Zposition Xrotation Yrotation Zrotation
							End Site
							{
								OFFSET 0.000000 -3.486992 0.000000
							}
						}
					}
				}
			}
		}
	}
	JOINT Junyuan_V1:Solving:LeftUpLeg
	{
		OFFSET 10.825166 0.000000 0.000000
		CHANNELS 6 Xposition Yposition Zposition Xrotation Yrotation Zrotation
		JOINT Junyuan_V1:Solving:LeftLeg
		{
			OFFSET 0.000000 43.678444 -0.000006
			CHANNELS 6 Xposition Yposition Zposition Xrotation Yrotation Zrotation
			JOINT Junyuan_V1:Solving:LeftFoot
			{
				OFFSET 0.000000 36.488441 -0.000006
				CHANNELS 6 Xposition Yposition Zposition Xrotation Yrotation Zrotation
				JOINT Junyuan_V1:Solving:LeftForeFoot
				{
					OFFSET 0.000000 3.967834 -0.000000
					CHANNELS 6 Xposition Yposition Zposition Xrotation Yrotation Zrotation
					JOINT Junyuan_V1:Solving:LeftToeBase
					{
						OFFSET 0.000000 0.000000 -15.539299
						CHANNELS 6 Xposition Yposition Zposition Xrotation Yrotation Zrotation
						JOINT Junyuan_V1:Solving:LeftToeBaseEnd
						{
							OFFSET 0.000000 0.000000 -3.974441
							CHANNELS 6 Xposition Yposition Zposition Xrotation Yrotation Zrotation
							End Site
							{
								OFFSET 0.000000 -3.974442 0.000000
							}
						}
					}
				}
			}
		}
	}
}
MOTION
Frames: 4
Frame Time: 0.041667
-57.888363 -27.243145 -88.116356 75.473823 -172.537955 0.764833 0.000009 -11.180205 2.228561 16.058716 1.297658 5.178337 0.000001 -8.683011 1.531039 1.991751 -0.222348 0.652733 -0.000012 -8.783406 0.768459 1.605164 -4.078983 1.162567 0.000002 -8.816967 0.000004 0.813604 -0.139299 0.317012 -0.000001 -11.336087 -1.133609 -16.178247 -5.813808 1.351873 0.000006 -7.643211 -0.668697 8.108626 -1.000558 -0.357608 0.000002 -7.555865 -1.332289 14.113498 -0.103743 -0.384574 -0.000012 -9.728065 -0.000015 -0.000001 0.000000 0.000001 0.000003 -8.097210 -5.270915 0.000008 14.907178 15.998098 -20.762388 -0.000044 0.000011 -25.176263 -29.931176 -97.296817 -29.048962 -0.000016 -0.000003 -14.252711 -32.332982 -7.736744 -22.031231 -0.000010 -0.000001 -0.286034 0.759081 20.646047 -3.579285 2.890214 -2.661488 0.000000 -0.000007 0.000009 -9.544726 -0.000011 0.061185 0.000001 -0.000003 -0.000003 0.000005 -8.097206 -5.270916 -0.000006 -19.461471 -17.055469 20.762388 -0.000012 -0.000008 -24.990699 36.530287 89.396938 29.048946 0.000007 0.000003 -24.626863 30.350584 13.041189 22.031223 -0.000024 -0.000003 -0.441743 -1.581324 -15.609202 3.579261 2.890198 -2.661494 0.000003 -0.000003 -0.000002 9.544676 -0.000020 0.061185 0.000003 -0.000002 -0.000003 -10.825161 -0.000011 0.000002 -28.777872 16.474456 7.955204 0.000009 43.678459 0.000004 15.584504 0.000001 0.000000 0.000002 36.488430 -0.000013 6.552425 17.137421 1.760668 0.000005 3.967834 -0.000004 -0.000001 0.000000 0.000002 -0.000005 -0.000009 -15.539304 5.719633 -0.000005 0.000002 0.000002 -0.000007 -3.486982 0.000002 -0.000003 -0.000001 10.825172 -0.000012 -0.000002 -26.464913 -10.730481 -7.346137 -0.000008 43.678452 0.000002 14.486853 -0.000000 0.000001 0.000016 36.488438 -0.000017 5.781049 -0.077782 2.604787 0.000005 3.967842 -0.000000 -0.000000 -0.000000 0.000000 0.000007 0.000003 -15.539320 -0.180927 -0.000001 -0.000000 0.000017 -0.000008 -3.974441 -0.000001 0.000000 0.000000 
-57.642044 -27.043777 -88.045578 75.175760 -172.841243 0.654416 0.000001 -11.180188 2.228557 16.147515 1.289330 5.146422 0.000006 -8.682983 1.531043 2.061834 -0.220298 0.660449 -0.000008 -8.783383 0.768443 1.642693 -4.121973 1.185351 -0.000002 -8.816925 -0.000000 0.736122 -0.152933 0.377108 -0.000015 -11.336089 -1.133588 -16.328971 -5.800953 1.364872 0.000008 -7.643212 -0.668701 8.195095 -0.870439 -0.357881 -0.000010 -7.555876 -1.332303 14.074005 -0.094436 -0.371335 -0.000002 -9.728104 -0.000007 0.000008 -0.000001 -0.000001 -0.000015 -8.097214 -5.270914 -0.000005 14.762752 16.078550 -20.762383 -0.000004 -0.000018 -25.203070 -29.352444 -96.985066 -29.048927 -0.000013 -0.000003 -15.350538 -32.281486 -8.340916 -22.031227 -0.000021 -0.000013 -0.243016 0.654980 20.354990 -3.579275 2.890208 -2.661480 0.000001 -0.000009 0.000002 -9.544701 -0.000017 0.061193 0.000000 0.000000 0.000000 -0.000011 -8.097210 -5.270914 -0.000007 -19.362022 -17.041576 20.762405 -0.000019 0.000013 -25.101224 35.550902 88.930053 29.048923 -0.000013 -0.000005 -24.300621 30.734246 12.993936 22.031250 -0.000001 0.000000 -0.570278 -2.142228 -14.910142 3.579290 2.890218 -2.661509 0.000003 0.000003 -0.000003 9.544682 -0.000001 0.061166 0.000003 -0.000001 0.000004 -10.825157 0.000013 -0.000008 -28.778965 16.730714 8.044300 0.000011 43.678429 -0.000007 14.912987 0.000002 0.000001 0.000003 36.488419 -0.000001 7.158548 17.770959 1.233694 0.000008 3.967834 0.000009 0.000001 0.000002 0.000000 0.000002 -0.000004 -15.539309 5.364441 -0.000002 -0.000003 0.000016 -0.000007 -3.486988 0.000001 -0.000001 0.000001 10.825179 0.000002 -0.000003 -27.055341 -10.802297 -7.436181 0.000001 43.678452 0.000002 14.685019 0.000001 0.000001 0.000006 36.488445 -0.000004 5.874376 0.352242 2.857954 -0.000007 3.967827 -0.000006 0.000000 -0.000001 0.000000 -0.000009 -0.000005 -15.539310 -0.228779 -0.000000 -0.000000 0.000006 -0.000007 -3.974442 0.000001 0.000001 -0.000000 
-57.382881 -26.828400 -87.974724 74.846101 -173.190047 0.551868 -0.000003 -11.180208 2.228564 16.249961 1.269414 5.100233 0.000004 -8.682992 1.531057 2.128930 -0.217941 0.666047 -0.000011 -8.783397 0.768442 1.660216 -4.155194 1.209435 0.000004 -8.816922 0.000015 0.630327 -0.160649 0.430902 0.000001 -11.336098 -1.133635 -16.458343 -5.771173 1.374456 -0.000003 -7.643281 -0.668700 8.293003 -0.720611 -0.357641 -0.000007 -7.555833 -1.332289 14.024172 -0.083504 -0.357687 0.000004 -9.728050 -0.000004 0.000005 0.000000 -0.000000 -0.000009 -8.097229 -5.270929 -0.000010 14.600617 16.128187 -20.762403 0.000007 0.000019 -25.194947 -28.772759 -96.638912 -29.048929 -0.000019 0.000007 -16.485941 -32.207747 -8.963773 -22.031240 -0.000005 -0.000010 -0.184857 0.507772 20.001978 -3.579275 2.890203 -2.661476 -0.000002 -0.000007 0.000002 -9.544709 -0.000010 0.061207 -0.000000 0.000002 -0.000002 -0.000009 -8.097229 -5.270925 -0.000004 -19.219602 -17.020864 20.762394 0.000007 0.000011 -25.199703 34.489132 88.459856 29.048929 -0.000011 -0.000014 -23.763077 31.197306 12.847153 22.031219 -0.000016 -0.000007 -0.707811 -2.842358 -13.989361 3.579271 2.890212 -2.661503 0.000005 -0.000003 -0.000009 9.544691 0.000008 0.061185 -0.000001 0.000001 -0.000003 -10.825170 0.000000 0.000002 -28.779408 16.972400 8.057277 0.000000 43.678444 -0.000005 14.170266 0.000004 0.000001 0.000009 36.488441 -0.000007 8.078601 18.900986 0.439744 0.000004 3.967827 0.000005 0.000001 -0.000001 0.000002 0.000002 -0.000020 -15.539301 4.639844 -0.000005 0.000000 -0.000005 -0.000008 -3.486977 -0.000001 0.000006 -0.000002 10.825156 -0.000009 -0.000005 -27.733153 -10.985839 -7.556803 -0.000010 43.678452 0.000011 14.906220 0.000001 0.000001 -0.000013 36.488430 -0.000005 6.013335 0.958076 3.111455 0.000003 3.967827 -0.000011 0.000001 0.000001 -0.000000 -0.000008 0.000004 -15.539303 -0.386056 0.000001 -0.000000 0.000026 -0.000008 -3.974460 -0.000000 0.000001 -0.000000 
-57.113415 -26.599527 -87.897255 74.489599 -173.595200 0.450262 -0.000002 -11.180187 2.228567 16.365630 1.246143 5.043522 0.000003 -8.682982 1.531049 2.189490 -0.214268 0.662476 -0.000001 -8.783381 0.768457 1.671149 -4.171570 1.221673 0.000008 -8.816954 0.000001 0.531868 -0.167901 0.490169 -0.000001 -11.336080 -1.133622 -16.593941 -5.731058 1.403385 0.000001 -7.643247 -0.668706 8.357600 -0.561136 -0.359661 -0.000002 -7.555883 -1.332288 13.976162 -0.073132 -0.347516 -0.000007 -9.728096 0.000009 0.000005 0.000001 -0.000001 -0.000005 -8.097229 -5.270931 -0.000004 14.466860 16.168866 -20.762386 -0.000015 -0.000006 -25.231624 -28.237059 -96.295326 -29.048944 -0.000014 0.000000 -17.614681 -32.103808 -9.577684 -22.031239 -0.000016 0.000002 -0.116610 0.327163 19.613950 -3.579268 2.890217 -2.661499 -0.000003 -0.000007 0.000001 -9.544693 -0.000002 0.061187 -0.000002 -0.000002 -0.000000 -0.000007 -8.097218 -5.270924 -0.000012 -19.068268 -17.009778 20.762402 -0.000004 -0.000001 -25.356302 33.578132 87.984257 29.048935 0.000003 -0.000016 -23.380489 31.636644 12.776976 22.031231 0.000001 -0.000008 -0.835168 -3.612754 -13.025484 3.579251 2.890193 -2.661499 0.000004 0.000005 -0.000004 9.544710 -0.000013 0.061181 -0.000000 -0.000001 0.000002 -10.825166 0.000006 0.000003 -28.866613 17.419658 8.100741 -0.000001 43.678471 0.000004 13.424392 -0.000003 0.000000 -0.000001 36.488422 -0.000010 9.322261 20.099379 -0.878838 -0.000001 3.967827 -0.000002 0.000000 -0.000004 0.000001 -0.000004 -0.000004 -15.539300 3.532714 0.000001 0.000001 0.000006 -0.000015 -3.486992 0.000000 -0.000006 0.000001 10.825158 0.000011 0.000000 -28.490777 -11.200478 -7.696216 0.000007 43.678448 -0.000010 15.170682 0.000001 0.000001 0.000007 36.488415 -0.000007 6.173393 1.725087 3.373624 0.000018 3.967827 0.000000 -0.000000 0.000000 0.000000 -0.000010 -0.000009 -15.539306 -0.600943 0.000000 -0.000000 -0.000013 0.000000 -3.974439 0.000001 -0.000000 -0.000000 
